HIERARCHY
ROOT Joint1
{
	OFFSET 0.000000 0.000000 0.000000
	CHANNELS 6 Xposition Yposition Zposition Xrotation Yrotation Zrotation
	JOINT Joint2
	{
		OFFSET -0.000000 0.000000 1.456275
		CHANNELS 6 Xposition Yposition Zposition Xrotation Yrotation Zrotation
		JOINT Joint3
		{
			OFFSET -0.000000 0.000002 1.471446
			CHANNELS 6 Xposition Yposition Zposition Xrotation Yrotation Zrotation
			JOINT Joint4
			{
				OFFSET 0.625745 0.000000 0.917755
				CHANNELS 6 Xposition Yposition Zposition Xrotation Yrotation Zrotation
				JOINT Joint5
				{
					OFFSET -0.629534 0.000001 0.940221
					CHANNELS 6 Xposition Yposition Zposition Xrotation Yrotation Zrotation
					JOINT Joint6
					{
						OFFSET -0.000001 0.113772 1.960660
						CHANNELS 6 Xposition Yposition Zposition Xrotation Yrotation Zrotation
						JOINT Joint7
						{
							OFFSET -0.669733 -0.113771 0.388340
							CHANNELS 6 Xposition Yposition Zposition Xrotation Yrotation Zrotation
							End Site
							{
								OFFSET 0.005509 0.005509 0.438980
							}
						}
					}
				}
			}
		}
	}
}
MOTION
Frames: 29
Frame Time: 0.041667
0.000000 0.000000 0.000000 -0.000000 1.019410 -2.196843 -0.000000 0.000000 1.456275 0.000000 -34.544197 0.000000 -0.000000 0.000002 1.471445 -0.000006 -1.133464 -96.296112 0.625745 0.000001 0.917755 -0.000001 45.874122 0.000002 -0.629534 0.000001 0.940221 0.000000 1.709735 90.208672 -0.000001 0.113771 1.960660 -88.303889 38.829806 -0.000003 -0.669733 -0.113771 0.388340 -0.853984 1.543546 -53.372218 
0.000000 0.000000 0.000000 -0.000000 1.019410 -2.194522 -0.000000 0.000000 1.456275 -0.000000 -34.555262 0.000000 -0.000000 0.000002 1.471446 -0.000006 -1.133464 -96.194089 0.625745 0.000000 0.917755 -0.000002 45.968607 0.000002 -0.629534 0.000001 0.940220 -0.000001 1.709736 90.113056 -0.000001 0.113772 1.960661 -88.303882 38.884011 -0.000006 -0.669733 -0.113771 0.388340 -0.850475 1.543040 -53.172736 
0.000000 0.000000 0.000000 -0.000000 1.019410 -2.190648 -0.000000 -0.000000 1.456275 -0.000000 -34.573741 -0.000000 -0.000000 0.000002 1.471446 -0.000006 -1.133467 -96.023683 0.625745 0.000000 0.917755 -0.000006 46.126419 0.000001 -0.629534 0.000001 0.940221 0.000000 1.709735 89.953332 -0.000001 0.113772 1.960660 -88.303889 38.974559 -0.000005 -0.669733 -0.113771 0.388339 -0.844620 1.542213 -52.839532 
0.000000 0.000000 0.000000 -0.000000 1.019410 -2.185211 -0.000000 -0.000000 1.456275 0.000000 -34.599672 -0.000000 -0.000000 0.000002 1.471446 -0.000006 -1.133462 -95.784599 0.625745 0.000000 0.917755 -0.000001 46.347840 0.000000 -0.629533 0.000001 0.940221 -0.000003 1.709740 89.729240 -0.000001 0.113772 1.960661 -88.303882 39.101593 -0.000006 -0.669733 -0.113771 0.388340 -0.836389 1.541113 -52.372036 
0.000000 0.000000 0.000000 -0.000000 1.019410 -2.178205 -0.000000 0.000000 1.456275 0.000000 -34.633089 -0.000000 -0.000000 0.000002 1.471446 -0.000006 -1.133466 -95.476537 0.625745 0.000000 0.917755 0.000000 46.633147 -0.000000 -0.629533 0.000001 0.940221 -0.000004 1.709739 89.440487 -0.000001 0.113772 1.960660 -88.303889 39.265282 -0.000002 -0.669734 -0.113772 0.388339 -0.825769 1.539797 -51.769648 
0.000000 0.000000 0.000000 -0.000000 1.019410 -2.169623 -0.000000 0.000000 1.456275 0.000000 -34.674009 0.000000 -0.000000 0.000002 1.471446 -0.000006 -1.133461 -95.099183 0.625745 0.000000 0.917755 -0.000003 46.982624 0.000001 -0.629534 0.000001 0.940221 -0.000002 1.709737 89.086786 -0.000001 0.113772 1.960660 -88.303882 39.465789 -0.000004 -0.669733 -0.113771 0.388340 -0.812745 1.538340 -51.031796 
0.000000 0.000000 0.000000 -0.000000 1.019410 -2.159460 -0.000000 -0.000000 1.456275 0.000000 -34.722479 0.000000 -0.000000 0.000002 1.471445 -0.000006 -1.133467 -94.652242 0.625745 0.000000 0.917755 0.000000 47.396537 0.000002 -0.629534 0.000001 0.940220 0.000000 1.709740 88.667870 -0.000001 0.113772 1.960660 -88.303889 39.703268 -0.000000 -0.669733 -0.113771 0.388341 -0.797299 1.536825 -50.157890 
0.000000 0.000000 0.000000 -0.000000 1.019410 -2.147706 -0.000000 0.000000 1.456275 -0.000000 -34.778534 0.000000 -0.000000 0.000002 1.471446 -0.000006 -1.133462 -94.135436 0.625745 0.000000 0.917755 0.000001 47.875176 0.000001 -0.629534 0.000001 0.940220 -0.000005 1.709741 88.183452 -0.000001 0.113771 1.960660 -88.303889 39.977883 -0.000000 -0.669733 -0.113771 0.388340 -0.779405 1.535370 -49.147326 
0.000000 0.000000 0.000000 -0.000000 1.019410 -2.134357 -0.000000 -0.000000 1.456275 -0.000000 -34.842188 -0.000000 -0.000000 0.000002 1.471445 -0.000006 -1.133467 -93.548429 0.625745 0.000001 0.917755 -0.000004 48.418808 0.000001 -0.629534 0.000001 0.940220 -0.000004 1.709738 87.633246 -0.000001 0.113772 1.960661 -88.303889 40.289780 0.000000 -0.669733 -0.113771 0.388340 -0.759058 1.534101 -47.999530 
0.000000 0.000000 0.000000 -0.000000 1.019410 -2.119405 -0.000000 -0.000000 1.456275 -0.000000 -34.913495 -0.000000 -0.000000 0.000002 1.471446 -0.000005 -1.133465 -92.890942 0.625745 0.000001 0.917755 -0.000002 49.027730 0.000001 -0.629534 0.000001 0.940221 0.000000 1.709738 87.016972 -0.000001 0.113772 1.960660 -88.303882 40.639134 -0.000000 -0.669733 -0.113771 0.388340 -0.736240 1.533163 -46.713904 
0.000000 0.000000 0.000000 -0.000000 1.019410 -2.102808 -0.000000 -0.000000 1.456275 0.000000 -34.992640 0.000000 -0.000000 0.000002 1.471446 -0.000005 -1.133465 -92.161136 0.625745 0.000000 0.917755 -0.000002 49.703614 0.000001 -0.629534 0.000001 0.940221 -0.000003 1.709740 86.332908 -0.000001 0.113772 1.960660 -88.303882 41.026921 -0.000002 -0.669733 -0.113771 0.388340 -0.710899 1.532719 -45.286869 
0.000000 0.000000 0.000000 -0.000000 1.019410 -2.084386 -0.000000 0.000000 1.456275 0.000000 -35.080507 -0.000000 -0.000000 0.000002 1.471446 -0.000005 -1.133466 -91.351028 0.625745 0.000000 0.917755 -0.000000 50.453880 0.000002 -0.629534 0.000001 0.940222 -0.000004 1.709740 85.573582 -0.000001 0.113772 1.960661 -88.303882 41.457370 -0.000002 -0.669734 -0.113771 0.388340 -0.682766 1.532969 -43.702819 
0.000000 0.000000 0.000000 -0.000000 1.019410 -2.063920 -0.000000 0.000000 1.456275 -0.000000 -35.178097 -0.000000 -0.000000 0.000002 1.471446 -0.000005 -1.133466 -90.451102 0.625745 0.000001 0.917755 -0.000002 51.287320 0.000002 -0.629534 0.000001 0.940220 -0.000000 1.709738 84.730068 -0.000002 0.113772 1.960661 -88.303889 41.935552 -0.000003 -0.669733 -0.113771 0.388340 -0.651534 1.534154 -41.943140 
0.000000 0.000000 0.000000 -0.000000 1.019410 -2.041196 -0.000000 0.000000 1.456275 0.000000 -35.286475 -0.000000 -0.000000 0.000002 1.471445 -0.000005 -1.133465 -89.451839 0.625745 0.000001 0.917755 -0.000002 52.212760 0.000001 -0.629533 0.000001 0.940221 -0.000001 1.709740 83.793444 -0.000001 0.113772 1.960660 -88.303882 42.466507 -0.000004 -0.669733 -0.113771 0.388340 -0.616915 1.536593 -39.989231 
0.000000 0.000000 0.000000 -0.000000 1.019410 -2.016207 -0.000000 -0.000000 1.456275 -0.000000 -35.405645 -0.000000 -0.000001 0.000002 1.471445 -0.000005 -1.133467 -88.352984 0.625745 0.000001 0.917755 -0.000002 53.230444 0.000001 -0.629534 0.000001 0.940220 -0.000001 1.709739 82.763465 -0.000001 0.113772 1.960660 -88.303889 43.050389 -0.000003 -0.669733 -0.113771 0.388340 -0.578969 1.540641 -37.840570 
0.000000 0.000000 0.000000 -0.000000 1.019410 -1.989788 -0.000000 0.000000 1.456275 -0.000000 -35.531641 -0.000000 -0.000000 0.000002 1.471446 -0.000005 -1.133463 -87.191278 0.625745 0.000000 0.917755 0.000000 54.306318 0.000001 -0.629534 0.000001 0.940220 -0.000002 1.709735 81.674582 -0.000001 0.113771 1.960660 -88.303882 43.667660 -0.000002 -0.669733 -0.113771 0.388340 -0.539047 1.546458 -35.569016 
0.000000 0.000000 0.000000 -0.000000 1.019410 -1.962986 -0.000000 0.000000 1.456275 0.000000 -35.659455 -0.000000 -0.000000 0.000002 1.471446 -0.000005 -1.133465 -86.012729 0.625744 0.000000 0.917755 -0.000001 55.397800 0.000001 -0.629534 0.000001 0.940221 -0.000003 1.709735 80.569915 -0.000001 0.113771 1.960660 -88.303889 44.293872 -0.000004 -0.669734 -0.113771 0.388341 -0.498813 1.553967 -33.264544 
0.000000 0.000000 0.000000 -0.000000 1.019410 -1.936627 -0.000000 0.000000 1.456275 -0.000000 -35.785157 -0.000000 -0.000000 0.000002 1.471445 -0.000005 -1.133465 -84.853626 0.625744 0.000001 0.917755 -0.000003 56.471270 0.000001 -0.629534 0.000001 0.940221 -0.000001 1.709735 79.483471 -0.000001 0.113772 1.960661 -88.303889 44.909761 -0.000002 -0.669733 -0.113771 0.388340 -0.459565 1.562932 -30.998083 
0.000000 0.000000 0.000000 -0.000000 1.019410 -1.910650 -0.000000 0.000000 1.456275 0.000000 -35.909037 0.000000 -0.000001 0.000002 1.471445 -0.000005 -1.133468 -83.711365 0.625745 0.000000 0.917755 0.000002 57.529126 0.000001 -0.629534 0.000001 0.940221 -0.000004 1.709736 78.412805 -0.000001 0.113772 1.960661 -88.303882 45.516695 -0.000003 -0.669733 -0.113771 0.388341 -0.421275 1.573277 -28.764546 
0.000000 0.000000 0.000000 -0.000000 1.019410 -1.884776 -0.000000 0.000000 1.456275 0.000000 -36.032424 0.000000 -0.000000 0.000002 1.471446 -0.000005 -1.133463 -82.573620 0.625744 0.000000 0.917755 0.000000 58.582826 0.000002 -0.629534 0.000001 0.940221 -0.000000 1.709735 77.346387 -0.000001 0.113772 1.960661 -88.303882 46.121245 -0.000002 -0.669733 -0.113771 0.388341 -0.383552 1.585059 -26.539827 
0.000000 0.000000 0.000000 -0.000000 1.019410 -1.858784 -0.000000 0.000000 1.456275 0.000000 -36.156385 -0.000000 -0.000000 0.000002 1.471445 -0.000004 -1.133467 -81.430663 0.625745 0.000000 0.917755 -0.000000 59.641355 0.000001 -0.629534 0.000001 0.940221 -0.000002 1.709734 76.275072 -0.000001 0.113772 1.960660 -88.303896 46.728551 -0.000003 -0.669733 -0.113771 0.388339 -0.346150 1.598348 -24.304911 
0.000000 0.000000 0.000000 -0.000000 1.019410 -1.832689 -0.000000 -0.000000 1.456275 -0.000000 -36.280828 0.000000 -0.000000 0.000002 1.471446 -0.000004 -1.133470 -80.283191 0.625745 0.000001 0.917755 0.000001 60.704051 0.000002 -0.629534 0.000001 0.940221 -0.000001 1.709738 75.199536 -0.000001 0.113772 1.960661 -88.303889 47.338262 -0.000002 -0.669733 -0.113771 0.388340 -0.309153 1.613157 -22.061170 
0.000000 0.000000 0.000000 -0.000000 1.019410 -1.806567 -0.000000 0.000000 1.456275 0.000000 -36.405407 0.000000 -0.000001 0.000002 1.471446 -0.000004 -1.133466 -79.134517 0.625745 0.000000 0.917754 0.000002 61.767873 0.000002 -0.629533 0.000001 0.940221 -0.000004 1.709738 74.122866 -0.000001 0.113772 1.960660 -88.303889 47.948614 -0.000003 -0.669733 -0.113771 0.388340 -0.272729 1.629417 -19.815060 
0.000000 0.000000 0.000000 -0.000000 1.019410 -1.780477 -0.000000 0.000000 1.456275 0.000000 -36.529836 0.000000 -0.000000 0.000002 1.471445 -0.000004 -1.133464 -77.987237 0.625745 0.000000 0.917756 0.000001 62.830391 -0.000001 -0.629534 0.000001 0.940221 -0.000002 1.709737 73.047500 -0.000001 0.113772 1.960660 -88.303896 48.558219 -0.000002 -0.669733 -0.113771 0.388339 -0.237007 1.647067 -17.571681 
0.000000 0.000000 0.000000 -0.000000 1.019410 -1.754413 -0.000000 -0.000000 1.456275 0.000000 -36.654125 0.000000 -0.000000 0.000002 1.471446 -0.000004 -1.133464 -76.841165 0.625745 0.000000 0.917755 -0.000002 63.891802 0.000003 -0.629534 0.000001 0.940221 -0.000004 1.709736 71.973275 -0.000001 0.113772 1.960660 -88.303889 49.167185 -0.000003 -0.669734 -0.113771 0.388340 -0.202046 1.666087 -15.330648 
0.000000 0.000000 0.000000 -0.000000 1.019410 -1.728358 -0.000000 -0.000000 1.456275 0.000000 -36.778390 0.000000 -0.000000 0.000002 1.471446 -0.000004 -1.133463 -75.695408 0.625745 0.000001 0.917755 -0.000004 64.952907 -0.000002 -0.629534 0.000001 0.940221 -0.000001 1.709738 70.899338 -0.000001 0.113773 1.960661 -88.303889 49.775980 -0.000004 -0.669733 -0.113771 0.388340 -0.167860 1.686443 -13.090227 
0.000000 0.000000 0.000000 -0.000000 1.019410 -1.702293 -0.000000 0.000000 1.456275 0.000000 -36.902689 0.000000 -0.000000 0.000002 1.471446 -0.000004 -1.133466 -74.549268 0.625745 0.000000 0.917755 -0.000004 66.014366 0.000001 -0.629534 0.000001 0.940221 -0.000000 1.709737 69.825044 -0.000001 0.113772 1.960661 -88.303889 50.384980 -0.000003 -0.669733 -0.113771 0.388340 -0.134486 1.708132 -10.849041 
0.000000 0.000000 0.000000 -0.000000 1.019410 -1.676221 -0.000000 0.000000 1.456275 -0.000000 -37.027029 0.000000 -0.000000 0.000002 1.471446 -0.000004 -1.133469 -73.402814 0.625745 0.000001 0.917755 0.000000 67.076125 0.000001 -0.629534 0.000001 0.940221 -0.000000 1.709737 68.750458 -0.000001 0.113772 1.960661 -88.303889 50.994148 -0.000004 -0.669733 -0.113771 0.388340 -0.101972 1.731116 -8.607227 
0.000000 0.000000 0.000000 -0.000000 1.019410 -1.650148 -0.000000 -0.000000 1.456275 -0.000000 -37.151363 -0.000000 -0.000000 0.000002 1.471446 -0.000004 -1.133463 -72.256298 0.625744 0.000000 0.917755 -0.000005 68.137940 0.000005 -0.629533 0.000001 0.940221 0.000000 1.709739 67.675802 -0.000001 0.113772 1.960661 -88.303889 51.603353 -0.000005 -0.669733 -0.113771 0.388340 -0.070389 1.755354 -6.365278 
